# xmcd CD database file
#
# Track frame offsets:
#	150
#	14348
#	52497
#	100489
#	125444
#	150484
#
# Disc length: 2771 seconds
#
# Revision: 0
# Processed by: cddbd v1.5.2PL0 Copyright (c) Steve Scherf et al.
# Submitted via: CDex 1.70beta2
#
DISCID=4d0ad106
DTITLE=Willy Michl - die Antwort B
DYEAR=1982
DGENRE=Blues
TTITLE0=Isarflimmern
TTITLE1=Karawane
TTITLE2=Dock of the Bay
TTITLE3=Zirkusplatz
TTITLE4=Bluesmann
TTITLE5=Karribean Reggae
EXTD=YEAR: 1982
EXTT0=
EXTT1=
EXTT2=
EXTT3=
EXTT4=
EXTT5=
PLAYORDER=
